<svg width="32" height="32" fill="none" xmlns="http://www.w3.org/2000/svg"><path fill="#FC784E" d="M0 0h32v32H0z"/><path d="M15.514 24.457c-1.356 0-2.522-.206-3.497-.617-.975-.411-1.714-.952-2.217-1.623-.503-.67-.77-1.394-.8-2.171a.465.465 0 01.48-.48h2.034c.183 0 .32.038.412.114a.873.873 0 01.297.32c.152.518.503.952 1.051 1.303.549.35 1.296.526 2.24.526 1.082 0 1.897-.176 2.446-.526.549-.366.823-.869.823-1.509 0-.426-.145-.777-.434-1.051-.275-.274-.694-.51-1.258-.709-.548-.198-1.371-.442-2.468-.731-1.798-.427-3.116-.99-3.954-1.692-.823-.716-1.235-1.73-1.235-3.04 0-.883.236-1.668.709-2.354.487-.686 1.18-1.227 2.08-1.623C13.137 8.198 14.196 8 15.4 8c1.25 0 2.331.221 3.246.663.914.442 1.607.998 2.08 1.668.487.656.746 1.31.777 1.966a.465.465 0 01-.48.48h-2.126c-.32 0-.54-.145-.663-.434-.091-.488-.396-.892-.914-1.212-.518-.335-1.158-.502-1.92-.502-.853 0-1.524.16-2.011.48-.488.32-.732.784-.732 1.394 0 .427.122.777.366 1.051.244.275.625.518 1.143.732.533.213 1.295.45 2.285.708 1.341.305 2.408.648 3.2 1.029.808.38 1.402.86 1.783 1.44.381.579.572 1.318.572 2.217 0 .975-.275 1.829-.823 2.56-.534.716-1.295 1.265-2.286 1.646-.975.38-2.103.571-3.383.571z" fill="#fff"/></svg>