<svg viewBox="0 0 197 44" xmlns="http://www.w3.org/2000/svg" xmlns:xlink="http://www.w3.org/1999/xlink"><style>:root&gt;svg{display:none}:root&gt;svg:target{display:block}</style><svg viewBox="0 0 11 6" id="icon-angle" xmlns="http://www.w3.org/2000/svg"><path d="M5.039 5.84L.16.94a.554.554 0 010-.779.545.545 0 01.774 0l4.492 4.512L9.917.162a.546.546 0 01.775 0 .554.554 0 010 .779l-4.879 4.9a.551.551 0 01-.774 0z"/></svg><svg viewBox="0 0 14 13" id="icon-arrow" xmlns="http://www.w3.org/2000/svg"><path d="M8.121.293a1 1 0 000 1.414L11.413 5 1 5.007a1 1 0 000 2L11.414 7l-3.293 3.293a1 1 0 101.414 1.414l3.586-3.585a3 3 0 000-4.243L9.535.293a1 1 0 00-1.414 0z"/></svg><svg viewBox="0 0 44 44" id="icon-asia" xmlns="http://www.w3.org/2000/svg"><g clip-path="url(#cclip0_0_199)"><path d="M15.132 13.567h2.124a1 1 0 011 1v1.465a.644.644 0 101.29 0v-1.465a2.292 2.292 0 00-2.29-2.29h-2.124a.984.984 0 010-1.965h4.711a2.275 2.275 0 002.272-2.273 2.275 2.275 0 00-2.272-2.272h-3.77a.645.645 0 000 1.29h3.77a.984.984 0 010 1.965h-4.711a2.275 2.275 0 00-2.273 2.272 2.275 2.275 0 002.273 2.273zm-7.743 4.325h2.108c.544 0 .987.443.987.988v1.454a.644.644 0 101.29 0V18.88a2.279 2.279 0 00-2.277-2.277H7.39a.972.972 0 010-1.94h2.465a.645.645 0 100-1.29H7.389a2.262 2.262 0 00-2.26 2.26 2.262 2.262 0 002.26 2.26zm18.263 8.921a.645.645 0 100-1.29.645.645 0 000 1.29zm3.18 1.46a.645.645 0 100-1.289.645.645 0 000 1.29zm1.891 2.235a.645.645 0 100-1.29.645.645 0 000 1.29zm-2.664-5.242a.644.644 0 100-1.29.644.644 0 000 1.29zm-2.149 5.672a.645.645 0 100-1.29.645.645 0 000 1.29z"/><path d="M42.911 22.81h-1.828l.904-1.867A2.507 2.507 0 0044 18.49a2.507 2.507 0 00-2.102-2.47c-1.315-2.37-3.885-4.149-7.001-4.86v-.048a.644.644 0 00-1.264-.176 13.86 13.86 0 00-1.197-.1.644.644 0 00-1.163 0 14.2 14.2 0 00-1.197.1.644.644 0 00-1.264.176v.049c-3.116.71-5.686 2.49-7.001 4.859a2.506 2.506 0 00-2.093 2.685c-2.975.277-5.649 1.52-7.655 3.386h-4.05a.908.908 0 00-.69.318H5.43a2.118 2.118 0 00-1.957-1.337 2.106 2.106 0 00-2.082 2.397 2.107 2.107 0 00-1.066 3.104 2.106 2.106 0 001.778 3.229c.878 0 1.648-.554 1.958-1.337h1.704a.91.91 0 00.586.623l2.02.686a10.897 10.897 0 00-.002 1.223c-.316.076-.61.207-.873.383a2.701 2.701 0 00-1.51-.46 2.721 2.721 0 00-2.717 2.719l.002.068h-.754c-.426 0-.803.24-.985.624a1.08 1.08 0 00.144 1.156l1.934 2.35c.207.252.514.397.84.397h27.26a.644.644 0 100-1.29H4.545l-1.604-1.948h39.544l-1.603 1.949h-6.164a.645.645 0 100 1.289h6.258c.327 0 .633-.145.84-.397l1.934-2.35a1.08 1.08 0 00.144-1.156 1.079 1.079 0 00-.984-.624h-.638a5.411 5.411 0 00.64-3.671.645.645 0 00-.52-.52 5.409 5.409 0 00-5.008 1.731c-.37-.2-.79-.316-1.237-.325v-1.226h.688a1.98 1.98 0 001.977-1.977v-.865h4.1c.6 0 1.088-.488 1.088-1.088V23.9c0-.6-.488-1.088-1.089-1.088zM6.291 33.707H4.56l-.002-.068a1.43 1.43 0 012.053-1.284 2.7 2.7 0 00-.323 1.284c0 .023.002.045.003.068zm32.225-1.784a4.117 4.117 0 013.184-1.195 4.118 4.118 0 01-1.005 2.98h-1.063l.881-.881a.645.645 0 10-.911-.912l-.914.913a2.71 2.71 0 00-.348-.717c.057-.064.115-.127.176-.188zm-13.013-17.98a10.714 10.714 0 013.309-1.452v.663a.644.644 0 101.29 0v-.918c.364-.053.735-.087 1.108-.106v1.024a.645.645 0 001.289 0V12.13c.373.02.743.054 1.109.106v.918a.645.645 0 001.289 0v-.663c1.206.308 2.333.799 3.309 1.452.95.637 1.724 1.406 2.288 2.256a2.526 2.526 0 00-.604.375 2.506 2.506 0 00-1.607-.587c-.595 0-1.163.215-1.607.587a2.506 2.506 0 00-1.607-.587c-.595 0-1.163.215-1.607.587a2.506 2.506 0 00-1.608-.587 2.51 2.51 0 00-1.607.587 2.506 2.506 0 00-1.607-.587 2.51 2.51 0 00-1.607.587 2.506 2.506 0 00-1.607-.587 2.51 2.51 0 00-1.607.587 2.524 2.524 0 00-.605-.375c.565-.85 1.339-1.62 2.29-2.256zm-3.291 3.333c.43 0 .832.233 1.05.607a.645.645 0 001.114 0 1.22 1.22 0 011.05-.607c.43 0 .832.233 1.05.607a.645.645 0 001.115 0 1.219 1.219 0 011.05-.607c.43 0 .832.233 1.049.607a.645.645 0 001.115 0 1.22 1.22 0 011.05-.607c.43 0 .832.233 1.049.607a.645.645 0 001.115 0 1.22 1.22 0 011.05-.607c.43 0 .832.233 1.05.607a.645.645 0 001.114 0 1.22 1.22 0 011.05-.607c.43 0 .832.233 1.05.607a.645.645 0 001.114 0c.218-.374.62-.607 1.05-.607a1.215 1.215 0 010 2.427c-.43 0-.832-.232-1.05-.607a.645.645 0 00-1.114 0 1.22 1.22 0 01-1.05.608c-.43 0-.833-.233-1.05-.608a.645.645 0 00-1.115 0c-.217.375-.62.608-1.05.608-.43 0-.832-.233-1.049-.608a.645.645 0 00-1.115 0c-.217.375-.62.608-1.05.608a1.22 1.22 0 01-1.05-.608.645.645 0 00-1.114 0 1.22 1.22 0 01-1.05.608 1.22 1.22 0 01-1.05-.608.645.645 0 00-1.114 0 1.22 1.22 0 01-.54.493 13.366 13.366 0 00-4.927-.942 1.215 1.215 0 011.202-1.37zM8.392 23.38h2.472a11.78 11.78 0 00-.712.983h-1.76v-.983zm-2.66 3.796H3.558a.644.644 0 00-.643.59.818.818 0 01-.81.747.815.815 0 01-.519-1.443.645.645 0 000-.993.815.815 0 01.519-1.443c.42 0 .776.327.81.746a.644.644 0 00.643.59h2.176v1.206zm.221-2.494H4.061a2.129 2.129 0 00-1.36-1.248.813.813 0 111.583-.327.645.645 0 00.642.591h2.177v.665h-.46a.909.909 0 00-.69.319zm4.48 9.025H7.58a1.43 1.43 0 011.427-1.497 1.43 1.43 0 011.428 1.429l-.002.068zm19.879 0h-2.244l-.002-.068a1.43 1.43 0 012.439-1.01 2.704 2.704 0 00-.196 1.01c0 .023.002.045.003.068zm-.817-2.786a2.721 2.721 0 00-2.719 2.718c0 .023.002.045.003.068H11.722l.002-.068c0-1.273-.88-2.344-2.063-2.638a9.734 9.734 0 01-.016-.795l6.592 2.239a4.113 4.113 0 003.753-.556 4.106 4.106 0 001.732-3.375c0-.484-.083-.96-.247-1.413a.645.645 0 00-1.212.44c.113.311.17.639.17.973a2.83 2.83 0 01-1.195 2.327 2.83 2.83 0 01-2.587.383l-9.629-3.27v-2.302h10.55c.323 0 .641.055.946.162a.644.644 0 10.427-1.217 4.142 4.142 0 00-1.373-.234h-5.845c2.056-2.676 5.438-4.428 9.256-4.428 6.253 0 11.34 4.696 11.34 10.468 0 .206-.006.412-.02.616a2.72 2.72 0 00-1.042.556 2.705 2.705 0 00-1.766-.654zm4.959 2.786h-2.853a1.43 1.43 0 011.427-1.497c.787 0 1.428.64 1.428 1.429 0 .023 0 .046-.002.068zm.404-2.486a2.72 2.72 0 00-.297.175 2.706 2.706 0 00-.964-.413 10.977 10.977 0 00-.01-1.287h1.271v1.525zm2.665 2.418c0 .023-.002.045-.003.068h-1.777l.002-.068a2.7 2.7 0 00-.313-1.266 1.43 1.43 0 012.09 1.265zm0-5.92c0 .38-.309.688-.688.688h-3.407a10.96 10.96 0 00-.404-1.553h4.499v.865zm5.188-2.154H32.493a11.526 11.526 0 00-.853-1.464h2.735a.644.644 0 100-1.29h-3.756a12.413 12.413 0 00-2.077-1.82 2.46 2.46 0 001.705-.586 2.507 2.507 0 001.607.588c.595 0 1.163-.215 1.608-.588a2.506 2.506 0 001.607.588c.594 0 1.162-.215 1.607-.588a2.506 2.506 0 001.607.588c.594 0 1.162-.215 1.607-.588.215.18.459.323.72.423l-.96 1.984h-2.267a.644.644 0 100 1.289h5.328v1.464z"/></g><defs><clipPath id="cclip0_0_199"><path d="M0 0h44v44H0z"/></clipPath></defs></svg><svg viewBox="0 0 15 15" id="icon-btn" xmlns="http://www.w3.org/2000/svg"><path d="M9.318 14.3a.694.694 0 01-.616-.36l-2.041-3.858a.622.622 0 01.05-.66L10.005 5.2 5.538 8.314a.725.725 0 01-.7.046L.757 6.432a.646.646 0 01-.379-.618.653.653 0 01.449-.574L13.895.69a.719.719 0 01.724.15c.19.18.252.447.16.685l-4.816 12.35a.684.684 0 01-.607.424l-.038.001z"/></svg><svg viewBox="0 0 44 44" id="icon-burger" xmlns="http://www.w3.org/2000/svg"><g clip-path="url(#eclip0_669_756)"><path d="M44 20.336c0-1.69-1.09-3.128-2.602-3.653-.232-5.241-2.189-9.263-5.825-11.966C32.254 2.251 27.688 1 22 1 16.312 1 11.746 2.25 8.427 4.717 4.791 7.42 2.834 11.442 2.602 16.683A3.873 3.873 0 000 20.336c0 .99.374 1.893.988 2.578A3.851 3.851 0 000 25.492c0 1.7 1.103 3.146 2.63 3.663.553 5.89 5.56 10.517 11.636 10.517h15.468c6.076 0 11.084-4.627 11.636-10.517A3.873 3.873 0 0044 25.492a3.85 3.85 0 00-.988-2.578A3.852 3.852 0 0044 20.336zM22 3.578c7.393 0 16.151 2.28 16.803 12.89H5.197C5.849 5.859 14.607 3.579 22 3.579zM3.867 19.047h36.266c.71 0 1.289.578 1.289 1.289 0 .71-.578 1.289-1.29 1.289H3.868a1.29 1.29 0 01-1.289-1.29c0-.71.578-1.288 1.29-1.288zm25.867 18.047H14.266c-4.581 0-8.383-3.367-9.016-7.735h1.195c.862 0 1.134.293 1.677.878.667.718 1.58 1.7 3.566 1.7 2 0 2.889-.993 3.538-1.718.513-.572.77-.86 1.618-.86.848 0 1.105.288 1.617.86.65.725 1.54 1.718 3.539 1.718 2 0 2.89-.993 3.538-1.718.513-.572.77-.86 1.618-.86.848 0 1.105.288 1.618.86.65.725 1.539 1.718 3.538 1.718 2 0 2.89-.993 3.539-1.718.513-.572.77-.86 1.618-.86h1.281c-.633 4.367-4.435 7.735-9.016 7.735zM40.133 26.78h-2.664c-2 0-2.89.993-3.539 1.719-.512.572-.77.86-1.617.86-.848 0-1.106-.288-1.618-.86-.65-.726-1.539-1.719-3.539-1.719s-2.889.993-3.538 1.719c-.513.572-.77.86-1.618.86-.848 0-1.105-.288-1.618-.86-.65-.726-1.538-1.719-3.538-1.719-2 0-2.89.993-3.539 1.719-.512.572-.77.86-1.617.86-.862 0-1.135-.294-1.677-.878-.667-.718-1.58-1.7-3.566-1.7H3.867a1.29 1.29 0 01-1.289-1.29c0-.71.578-1.289 1.29-1.289h36.265a1.29 1.29 0 010 2.578z"/><path d="M14.266 13.89a1.289 1.289 0 100-2.577 1.289 1.289 0 000 2.578zm15.468 0a1.289 1.289 0 100-2.577 1.289 1.289 0 000 2.578zm-5.156-2.577a1.289 1.289 0 100-2.579 1.289 1.289 0 000 2.579zm-5.156-2.579a1.289 1.289 0 100-2.578 1.289 1.289 0 000 2.578z"/></g><defs><clipPath id="eclip0_669_756"><path d="M0 0h44v44H0z"/></clipPath></defs></svg><svg viewBox="0 0 24 24" id="icon-calling" xmlns="http://www.w3.org/2000/svg"><path d="M14.353 2.5a7.97 7.97 0 017.04 7.032m-7.04-3.489a4.426 4.426 0 013.5 3.5"/><path fill-rule="evenodd" clip-rule="evenodd" d="M11.031 12.472c3.99 3.988 4.894-.625 7.434 1.913 2.449 2.448 3.857 2.938.754 6.04-.389.312-2.858 4.07-11.535-4.605C-.993 7.144 2.762 4.672 3.074 4.284c3.11-3.11 3.593-1.695 6.041.753 2.54 2.54-2.072 3.447 1.916 7.435z"/></svg><svg viewBox="0 0 21 20" id="icon-cart" xmlns="http://www.w3.org/2000/svg"><path d="M1 1l2.08.356.963 11.34a1.79 1.79 0 001.8 1.633h10.909a1.794 1.794 0 001.785-1.528l.949-6.481a1.328 1.328 0 00-1.135-1.502c-.064-.009-14.937-.014-14.937-.014m8.961 3.654h2.773"/><path fill-rule="evenodd" clip-rule="evenodd" d="M5.404 17.756a.54.54 0 01.544.538.541.541 0 01-.544.539.541.541 0 01-.544-.54.54.54 0 01.544-.537zm11.281 0c.3 0 .545.241.545.538a.542.542 0 01-.545.539.541.541 0 01-.544-.54.54.54 0 01.544-.537z"/></svg><svg viewBox="0 0 32 34" id="icon-catalog-btn" xmlns="http://www.w3.org/2000/svg"><path d="M13.78 27.125H1.14c-.63 0-1.14.505-1.14 1.125s.51 1.125 1.139 1.125H13.78c.528 2.567 2.825 4.5 5.58 4.5 2.754 0 5.05-1.933 5.578-4.5h5.809c.628 0 1.139-.504 1.139-1.125 0-.62-.51-1.125-1.14-1.125h-5.808c-.527-2.567-2.824-4.5-5.579-4.5-2.754 0-5.051 1.933-5.579 4.5zm8.996 1.125c0 1.864-1.53 3.375-3.417 3.375-1.887 0-3.416-1.51-3.416-3.375 0-1.864 1.53-3.375 3.416-3.375 1.887 0 3.416 1.51 3.416 3.375zM2.393 15.875H1.139C.51 15.875 0 16.379 0 17s.51 1.125 1.139 1.125h1.254c.527 2.567 2.824 4.5 5.578 4.5 2.755 0 5.052-1.933 5.58-4.5h17.196c.628 0 1.139-.504 1.139-1.125s-.51-1.125-1.14-1.125H13.55c-.527-2.567-2.824-4.5-5.579-4.5-2.754 0-5.051 1.933-5.578 4.5zM11.388 17c0 1.864-1.53 3.375-3.417 3.375-1.887 0-3.416-1.51-3.416-3.375 0-1.864 1.53-3.375 3.416-3.375 1.887 0 3.417 1.51 3.417 3.375zm6.947-12.375H1.14C.51 4.625 0 5.129 0 5.75s.51 1.125 1.139 1.125h17.197c.527 2.567 2.824 4.5 5.578 4.5 2.755 0 5.052-1.933 5.58-4.5h1.253c.628 0 1.139-.504 1.139-1.125 0-.62-.51-1.125-1.14-1.125h-1.253c-.527-2.567-2.824-4.5-5.579-4.5-2.754 0-5.051 1.933-5.579 4.5zm8.996 1.125c0 1.864-1.53 3.375-3.417 3.375-1.887 0-3.416-1.51-3.416-3.375 0-1.864 1.53-3.375 3.416-3.375 1.887 0 3.417 1.51 3.417 3.375z"/></svg><svg viewBox="0 0 12 9" id="icon-checked" xmlns="http://www.w3.org/2000/svg"><path d="M4.196 8.393a.587.587 0 01-.416-.173L.173 4.613a.588.588 0 11.832-.833l3.191 3.19L10.995.174a.588.588 0 11.832.833L4.613 8.22a.588.588 0 01-.417.173z"/></svg><svg viewBox="0 0 6 10" id="icon-chevron" xmlns="http://www.w3.org/2000/svg"><path d="M5.722 4.683L.718.123a.422.422 0 00-.595 0 .417.417 0 000 .591L4.826 5 .124 9.286a.417.417 0 000 .591.42.42 0 00.594 0l5.004-4.56A.412.412 0 005.842 5a.416.416 0 00-.12-.317z"/></svg><svg viewBox="0 0 18 18" id="icon-close" xmlns="http://www.w3.org/2000/svg"><path d="M10.055 9.005l7.716-7.716A.75.75 0 1016.71.23L8.995 7.945 1.28.23A.75.75 0 00.22 1.29l7.716 7.716L.22 16.721a.75.75 0 001.06 1.06l7.716-7.716 7.716 7.716a.75.75 0 001.06-1.06l-7.716-7.716z"/></svg><svg viewBox="0 0 34 34" id="icon-delivery" xmlns="http://www.w3.org/2000/svg"><path d="M6.518 24.469l.407.97c.288-.117.587-.205.893-.26l-.19-1.034c-.38.069-.753.177-1.11.324zm-2.791 2.606l.956.458a4.322 4.322 0 011.46-1.676l-.6-.867a5.378 5.378 0 00-1.816 2.085z"/><path d="M32.938 26.78c0-.905-.337-1.777-.948-2.45l-.791.7c.314.346.529.769.623 1.225h-3.666a.536.536 0 00-.442.233l-1.967 2.917h-1.31V27.83a3.659 3.659 0 011.09-2.598 3.745 3.745 0 012.63-1.078h1.062c.522 0 1.033.152 1.468.438l.588-.875a3.723 3.723 0 00-1.525-.575v-1.613a.522.522 0 00-.156-.371.534.534 0 00-.375-.154 2.14 2.14 0 01-1.502-.616 2.09 2.09 0 01-.623-1.485v-2.1h1.593a.534.534 0 00.376-.154.522.522 0 00.156-.37v-3.677a.522.522 0 00-.156-.37.535.535 0 00-.375-.154h-.938c-.221 0-.442.03-.656.089v-.615a.521.521 0 00-.117-.328L25.24 9.077a1.82 1.82 0 00-.43-2.366 1.873 1.873 0 00-2.43.078 1.822 1.822 0 00-.274 2.388 1.86 1.86 0 001.06.74c.432.112.89.067 1.291-.127l1.575 1.947v.662l-2.335-.77a1.448 1.448 0 00-.476-.077h-4.382l-2.522-2.908A1.58 1.58 0 0017 7.352v-.2l.769-.38a.53.53 0 00.276-.336.518.518 0 00-.072-.426l-.872-1.293a.532.532 0 00.309-.182.52.52 0 00.121-.334c0-.835-.337-1.636-.934-2.226a3.21 3.21 0 00-2.253-.924c-1 0-1.927.284-2.616 1.036a3.123 3.123 0 00-.808 2.427l.113 1.124c.048.484.282.932.655 1.25v9.915c0 .37.098.731.285 1.05h-.817c-.18 0-.36.03-.531.09v-6.916c0-.417-.168-.818-.467-1.113a1.605 1.605 0 00-1.127-.462H2.656c-.422 0-.827.167-1.126.462a1.568 1.568 0 00-.468 1.113v2.626h1.063v-1.05h7.438v5.25H2.125v-3.15H1.062v4.287a1.056 1.056 0 00.873 1.033l4.971.894v1.232a7.59 7.59 0 00-1.314.43H2.656a.534.534 0 00-.375.154.522.522 0 00-.156.371v2.492a7.393 7.393 0 00-1.063 3.81c0 .139.056.272.156.37.1.099.235.154.376.154h2.435c.317.776.862 1.44 1.564 1.908a4.286 4.286 0 004.752 0 4.211 4.211 0 001.564-1.908h8.932a2.687 2.687 0 001.966-.859l.568-.618v1.477c0 .14.056.273.156.372.1.098.234.153.375.153h1.101a4.23 4.23 0 002.054 1.78 4.297 4.297 0 002.727.177 4.253 4.253 0 002.271-1.5 4.17 4.17 0 00.705-3.745.522.522 0 00.173-.387zM22.843 8.14a.782.782 0 01.492-.728.805.805 0 01.868.17.786.786 0 01.173.859.803.803 0 01-1.3.255.784.784 0 01-.233-.557zm-7.6 18.64c-.52 0-1.02-.205-1.387-.569a1.93 1.93 0 01-.576-1.37c0-.516.132-.998.48-1.395.31-.353.737-.583 1.205-.65a2.377 2.377 0 001.454-.783c.374-.426.58-.97.58-1.534a.518.518 0 00-.156-.372 1.56 1.56 0 00.065-1.203h1.443l-2.332 5.99a1.208 1.208 0 00-.082.453v1.433h-.694zM17 25.73h2.656a.535.535 0 01.508.372.52.52 0 01-.213.59 1.074 1.074 0 01-.424.088H17v-1.05zm4.123-.092a1.582 1.582 0 00-.484-.623 1.608 1.608 0 00-.727-.315l2.2-5.235a3.03 3.03 0 00-.284-2.875 3.085 3.085 0 00-1.116-1 3.126 3.126 0 00-1.46-.362H17v-.833l.156.154a.533.533 0 00.375.154h5.404a1.557 1.557 0 00.201 1.435 1.607 1.607 0 001.301.666h.002a2.592 2.592 0 00-.533 1.575v4.073c0 .278-.112.545-.311.742l-2.472 2.444zm3.314-9.885a.535.535 0 01-.49-.324.52.52 0 01.115-.572.532.532 0 01.579-.114.53.53 0 01.328.485c0 .14-.056.273-.156.371a.535.535 0 01-.375.154zm3.72-2.625v2.625h-1.063v-2.462a1.41 1.41 0 01.656-.163h.406zm-2.126 2.1a1.56 1.56 0 00-.673-1.286 1.603 1.603 0 00-1.452-.199v-.937l2.125.7v1.722zm-7.437-2.626h4.25v1.05H17.75l-3.032-2.996-.75.743 1.969 1.946v1.883H12.75V8.927h2.412l3.028 3.492a.53.53 0 00.404.183zm-6.078-9.81c.485-.53 1.13-.691 1.828-.691.47 0 .928.155 1.3.44.373.286.64.685.757 1.135h-2.057a.535.535 0 00-.376.154.522.522 0 00-.155.371v1.247a.848.848 0 01-.24.586.868.868 0 01-1.482-.5l-.114-1.124a2.054 2.054 0 01.539-1.618zm.433 4.56c.51 0 1-.202 1.361-.558.361-.357.564-.841.565-1.346v-.722h1.063a.52.52 0 00.089.292l.728 1.08-.524.26a.53.53 0 00-.294.469v.525a.52.52 0 01-.155.37.535.535 0 01-.376.155H12.75V7.34a1.9 1.9 0 00.2.01zm-.199 9.451v-.525h6.501c.335 0 .665.082.96.238.296.156.547.382.733.657a1.997 1.997 0 01.187 1.889l-2.36 5.617h-1.529l2.379-6.112a.52.52 0 00-.249-.653.536.536 0 00-.247-.06h-5.313a1.07 1.07 0 01-.75-.309 1.045 1.045 0 01-.312-.742zm-1.594 2.1h4.25c.141 0 .276.056.376.154a.522.522 0 01-.376.897h-4.25a.534.534 0 01-.375-.154.522.522 0 01.375-.896zm-9.031-7.35v-.526c0-.139.056-.272.156-.37a.535.535 0 01.375-.155h6.375c.141 0 .276.056.376.154a.52.52 0 01.155.371v.525H2.125zm0 7.35h7.438v1.05H7.485l-5.36-.963v-.086zm1.72 4.726c-.231.185-.45.384-.658.594v-.594h.657zm4.124 7.877a3.24 3.24 0 01-1.592-.426 3.194 3.194 0 01-1.168-1.15h1.356a2.136 2.136 0 002.808 0h1.356a3.193 3.193 0 01-1.169 1.15 3.24 3.24 0 01-1.591.426zm14.051-3.141a1.595 1.595 0 01-1.18.515H2.148a6.358 6.358 0 011.592-3.701 6.487 6.487 0 013.513-2.03 2.01 2.01 0 01.418-.045h3.486v-1.05H7.97v-1.05h7.856a1.314 1.314 0 01-1.01.753c-.72.102-1.38.458-1.857 1-.514.586-.74 1.318-.74 2.083 0 .712.258 1.4.726 1.94H8.5v1.05h11.027a2.176 2.176 0 001.503-.615l3.316-3.278a2.1 2.1 0 00.623-1.485v-4.074c0-.325.102-.643.293-.909.19-.266.459-.467.77-.576v2.01c0 .745.267 1.465.753 2.033.486.569 1.16.95 1.902 1.074v1.094c-.33 0-.667-.02-.995.023a4.82 4.82 0 00-2.683 1.15 4.727 4.727 0 00-1.507 2.476l-1.482 1.612zm6.42-1.06h.027l.642.634a.588.588 0 01.074.743.594.594 0 01-.612.25.597.597 0 01-.305-.16l-.489-.484.663-.983zm.247 4.2c-.46 0-.914-.1-1.332-.291a3.2 3.2 0 01-1.09-.813.528.528 0 00.208-.18l.46-.682a2.137 2.137 0 002.382.823 2.123 2.123 0 001.083-.76 2.083 2.083 0 00.129-2.297h1.166a3.118 3.118 0 01-.403 2.869 3.178 3.178 0 01-1.137.978 3.218 3.218 0 01-1.465.354z"/><path d="M4.25 13.652H3.187v3.15H4.25v-3.15z"/></svg><svg viewBox="0 0 44 44" id="icon-dish" xmlns="http://www.w3.org/2000/svg"><g clip-path="url(#mclip0_0_228)"><path d="M31.158 14.657l-.47-1.531c-.599-1.74-2.51-2.671-4.27-2.08a3.347 3.347 0 00-2.105 2.08l-.47 1.531a8.506 8.506 0 00-.244 3.987 3.754 3.754 0 001.954 2.613l-.527 11.65c-.07.65.143 1.3.587 1.785a2.583 2.583 0 003.78 0 2.248 2.248 0 00.587-1.736l-.53-11.7a3.753 3.753 0 001.95-2.612 8.506 8.506 0 00-.242-3.987zm-1.202 3.735a2.307 2.307 0 01-1.522 1.731.725.725 0 00-.474.711l.557 12.236a.833.833 0 01-.22.657 1.143 1.143 0 01-1.594 0 .864.864 0 01-.216-.705l.553-12.188a.725.725 0 00-.474-.71 2.307 2.307 0 01-1.522-1.732 7.068 7.068 0 01.202-3.31l.47-1.532a1.908 1.908 0 013.568 0l.47 1.532a7.078 7.078 0 01.202 3.31zM19.8 10.872a.73.73 0 00-.733.725v6.223l-1.986 1.963a.72.72 0 00-.214.548l.641 12.685a.98.98 0 01-.277.738c-.401.4-1.055.403-1.46.007l-.007-.007a.98.98 0 01-.277-.738l.646-12.685a.72.72 0 00-.214-.548l-1.986-1.963v-6.223a.73.73 0 00-.733-.725.73.73 0 00-.733.725v6.524a.72.72 0 00.214.512l1.97 1.948-.625 12.364c-.067 1.351.987 2.5 2.354 2.565 1.366.066 2.528-.976 2.594-2.326.004-.08.004-.16 0-.239l-.625-12.364 1.97-1.948a.72.72 0 00.214-.512v-6.524a.73.73 0 00-.733-.725z"/><path d="M15.4 10.872a.73.73 0 00-.733.725v5.799c0 .4.328.724.733.724a.73.73 0 00.733-.724v-5.799a.73.73 0 00-.733-.725zm2.2 0a.73.73 0 00-.733.725v5.799c0 .4.328.724.733.724a.73.73 0 00.733-.724v-5.799a.73.73 0 00-.733-.725z"/><path d="M22 0C9.85 0 0 9.735 0 21.745c0 12.009 9.85 21.744 22 21.744s22-9.735 22-21.744C43.986 9.74 34.145.014 22 0zm0 42.04c-11.34 0-20.533-9.087-20.533-20.295C1.467 10.536 10.66 1.45 22 1.45c11.34 0 20.533 9.086 20.533 20.295C42.52 32.948 33.335 42.027 22 42.04z"/><path d="M24.38 35.351a.731.731 0 00-.829-.648h.003a13.618 13.618 0 01-3.108 0 .732.732 0 00-.814.635.727.727 0 00.643.805 14.94 14.94 0 003.447 0 .727.727 0 00.658-.792zm8.84-22.946a.74.74 0 00-1.036-.087.72.72 0 00-.088 1.02 12.936 12.936 0 01-.778 17.648.72.72 0 00-.002 1.025.74.74 0 001.037.002 14.374 14.374 0 00.867-19.608zM17.086 9.582l-.002-.001h-.002.004z"/><path d="M25.46 7.653a14.96 14.96 0 00-8.633.524.722.722 0 00.258 1.404.742.742 0 00.256-.047 13.47 13.47 0 017.773-.472.724.724 0 10.345-1.41zM12.65 30.95a12.887 12.887 0 01-3.85-9.205 12.85 12.85 0 012.523-7.675.72.72 0 00-.145-1.015.739.739 0 00-1.04.161 14.371 14.371 0 001.472 18.76.74.74 0 001.039 0 .72.72 0 000-1.026z"/></g><defs><clipPath id="mclip0_0_228"><path d="M0 0h44v43.489H0z"/></clipPath></defs></svg><svg viewBox="0 0 10 21" id="icon-facebook" xmlns="http://www.w3.org/2000/svg"><path d="M2.547 20.526v-9.631H0V7.427h2.547V4.465C2.547 2.137 4.05 0 7.517 0 8.922 0 9.96.135 9.96.135l-.082 3.238s-1.058-.01-2.213-.01c-1.25 0-1.45.576-1.45 1.532v2.532h3.763l-.164 3.468h-3.6v9.631H2.547z"/></svg><svg viewBox="0 0 20 20" id="icon-instagram" xmlns="http://www.w3.org/2000/svg"><path d="M9.748 6.499A3.258 3.258 0 006.496 9.75a3.258 3.258 0 003.252 3.251 3.258 3.258 0 003.25-3.251 3.258 3.258 0 00-3.25-3.251zm9.751 3.251c0-1.346.013-2.68-.063-4.025-.076-1.56-.432-2.946-1.573-4.088C16.719.493 15.336.14 13.775.064 12.428-.01 11.094.001 9.75.001 8.404 0 7.07-.011 5.725.064 4.165.14 2.78.496 1.637 1.637.493 2.781.14 4.164.064 5.725-.01 7.072.001 8.406.001 9.75c0 1.344-.012 2.68.063 4.025.076 1.56.432 2.946 1.573 4.088 1.144 1.144 2.527 1.497 4.088 1.573 1.347.076 2.681.063 4.025.063 1.346 0 2.68.013 4.025-.063 1.56-.076 2.946-.432 4.088-1.573 1.144-1.144 1.497-2.527 1.573-4.088.078-1.344.063-2.679.063-4.025zm-9.751 5.003A4.996 4.996 0 014.745 9.75a4.996 4.996 0 015.003-5.003A4.996 4.996 0 0114.75 9.75a4.996 4.996 0 01-5.002 5.003zm5.207-9.042a1.167 1.167 0 01-1.168-1.169c0-.646.522-1.168 1.168-1.168a1.167 1.167 0 01.827 1.995 1.167 1.167 0 01-.827.342z"/></svg><svg viewBox="0 0 24 24" id="icon-location" xmlns="http://www.w3.org/2000/svg"><g fill-rule="evenodd" clip-rule="evenodd"><path d="M14.5 10.5a2.5 2.5 0 10-5 0 2.5 2.5 0 005 0z"/><path d="M12 21c-1.199 0-7.5-5.102-7.5-10.437C4.5 6.387 7.857 3 12 3c4.142 0 7.5 3.387 7.5 7.563C19.5 15.898 13.198 21 12 21z"/></g></svg><svg viewBox="0 0 24 24" id="icon-message" xmlns="http://www.w3.org/2000/svg"><path d="M17.903 8.851l-4.444 3.613c-.84.666-2.02.666-2.86 0L6.12 8.851"/><path fill-rule="evenodd" clip-rule="evenodd" d="M16.909 21C19.95 21.008 22 18.51 22 15.438V8.57C22 5.499 19.95 3 16.909 3H7.09C4.05 3 2 5.499 2 8.57v6.868C2 18.51 4.05 21.008 7.091 21h9.818z"/></svg><svg viewBox="0 0 45 44" id="icon-pizza" xmlns="http://www.w3.org/2000/svg"><g clip-path="url(#rclip0_0_172)"><path d="M43.858 43.752a.859.859 0 01-.892.198L7.27 31.223a4.698 4.698 0 01-4.255.338A4.706 4.706 0 01.472 25.42 46.081 46.081 0 0110.51 10.396 46.079 46.079 0 0125.533.358 4.675 4.675 0 0127.326 0c1.845 0 3.6 1.094 4.35 2.902a4.687 4.687 0 01-.027 3.65l12.418 36.31a.86.86 0 01-.209.89zM12.676 31.325l3.783 1.349a2.186 2.186 0 00-.264-3.235 2.176 2.176 0 00-1.62-.434 2.176 2.176 0 00-1.452.838c-.328.428-.484.95-.447 1.482zM30.087 3.56a2.985 2.985 0 00-3.896-1.614C15.188 6.504 6.618 15.074 2.06 26.077a2.962 2.962 0 000 2.282 2.962 2.962 0 001.614 1.614 2.963 2.963 0 002.282 0A2.962 2.962 0 007.57 28.36a38.432 38.432 0 018.373-12.531 38.434 38.434 0 0112.53-8.373 2.985 2.985 0 001.614-3.896zm7.635 26.06a2.176 2.176 0 00-1.685.855 2.176 2.176 0 00-.434 1.62 2.187 2.187 0 003.47 1.476l-1.35-3.95zm1.922 5.621a3.913 3.913 0 01-5.745-2.922 3.884 3.884 0 01.774-2.89 3.88 3.88 0 012.478-1.479l-1.708-4.994-1.964 1.507a.86.86 0 01-1.047-1.364l2.424-1.86-4.442-12.99a4.682 4.682 0 01-1.283.795c-9.107 3.772-16.2 10.866-19.973 19.973a4.7 4.7 0 01-.482.882l2.301.82a3.88 3.88 0 01.783-1.922 3.883 3.883 0 013.11-1.53c.854 0 1.681.279 2.37.808a3.884 3.884 0 011.497 2.591c.122.93-.095 1.85-.582 2.613l10.683 3.809.405-.978a.86.86 0 111.588.658l-.372.898 11.405 4.066-2.22-6.491z"/><path d="M9.394 20.945zM8.087 23.08a40.676 40.676 0 00-2.237 4.567.86.86 0 01-1.588-.657 42.393 42.393 0 012.332-4.761.86.86 0 111.493.851zm18.918 9.921a3.918 3.918 0 01-4.386-3.365 3.914 3.914 0 013.88-4.42 3.918 3.918 0 013.872 3.4A3.914 3.914 0 0127.005 33zm1.662-4.161a2.195 2.195 0 00-2.458-1.886 2.193 2.193 0 00-1.886 2.457 2.194 2.194 0 002.458 1.886 2.193 2.193 0 001.886-2.457zm-1.885-6.528a3.918 3.918 0 01-4.386-3.365 3.883 3.883 0 01.774-2.891 3.883 3.883 0 013.105-1.53 3.918 3.918 0 013.872 3.4 3.914 3.914 0 01-3.365 4.386zm1.661-4.162a2.195 2.195 0 00-2.458-1.886 2.177 2.177 0 00-1.451.838 2.176 2.176 0 00-.434 1.62 2.195 2.195 0 002.457 1.886 2.193 2.193 0 001.886-2.458zm-7.329 7.722l-2.642.348a.859.859 0 11-.224-1.704l2.641-.348a.86.86 0 01.225 1.704zm-1.34-6.342l-.233 1.772a.86.86 0 11-1.704-.224l.233-1.772a.86.86 0 111.704.224z"/></g><defs><clipPath id="rclip0_0_172"><path transform="matrix(1 0 0 -1 .113 44)" d="M0 0h44v44H0z"/></clipPath></defs></svg><svg viewBox="0 0 34 34" id="icon-resturent" xmlns="http://www.w3.org/2000/svg"><path d="M32.406 28.156h-3.718V17.484a2.31 2.31 0 001.69-3.092l-1.69-4.397V1.594a.531.531 0 00-.532-.532H5.844a.531.531 0 00-.532.532v8.4l-1.69 4.398a2.31 2.31 0 001.69 3.092v10.672H1.595a.531.531 0 00-.532.532v3.718a.532.532 0 00.532.532h30.812a.532.532 0 00.532-.532v-3.718a.53.53 0 00-.532-.532zm-5.843 0v-11.33c.29.3.658.517 1.062.625v10.705h-1.063zm-4.25.532v3.187h-2.125v-3.719h1.062a.53.53 0 00.531-.531v-1.594a.531.531 0 00-.531-.531h-3.188a.531.531 0 00-.53.531v1.594a.531.531 0 00.53.531h1.063v3.719H17v-3.188a.53.53 0 00-.531-.53h-1.063v-1.595a.529.529 0 00-.531-.53h-1.063v-8.55a2.309 2.309 0 001.313-.79 2.29 2.29 0 001.781.84h.188a2.288 2.288 0 001.78-.84c.077.092.161.178.251.258v1.644a2.659 2.659 0 00-2.656 2.656.533.533 0 00.531.531h5.313a.529.529 0 00.53-.531 2.659 2.659 0 00-2.655-2.656v-1.111c.154.032.311.048.469.048h.166a2.305 2.305 0 001.802-.864 2.302 2.302 0 001.805.864h.102c.334 0 .664-.07.968-.21v8.71h-1.063a.53.53 0 00-.53.532v1.593h-1.063a.532.532 0 00-.532.532zm-3.72-1.594v-.532h2.126v.532h-2.125zM8.264 14.893l1.173-4.268h2.156l-.79 4.8a1.243 1.243 0 01-1.232 1.044h-.102a1.248 1.248 0 01-1.204-1.576zM8.5 17.32c.304.14.634.21.968.21h.102a2.3 2.3 0 001.805-.864 2.306 2.306 0 001.375.825v2.695H8.5V17.32zm4.677-.852a1.248 1.248 0 01-1.231-1.451l.724-4.393h2.175l-.256 4.664a1.248 1.248 0 01-1.246 1.18h-.166zm4.822-.39a1.237 1.237 0 01-.905.39h-.188a1.25 1.25 0 01-1.245-1.313l.248-4.531h2.182l.248 4.528v.003a1.233 1.233 0 01-.34.923zm1.412-.79l-.256-4.664h2.175l.724 4.393a1.248 1.248 0 01-1.231 1.45h-.166a1.248 1.248 0 01-1.246-1.179zm.776 4.367a1.597 1.597 0 011.503 1.063h-4.068a1.597 1.597 0 011.503-1.063h1.063zm5.338-3.679a1.239 1.239 0 01-.992.492h-.104a1.244 1.244 0 01-1.23-1.045l-.792-4.799h2.157l1.172 4.265v.003a1.24 1.24 0 01-.211 1.084zm-.556 11.117h.531v1.062h-.531v-1.062zm4.418-12.321a1.248 1.248 0 11-2.368.779l-1.354-4.927h2.127l1.595 4.148zM6.375 2.125h21.25v7.438H6.375V2.125zM4.749 15.928a1.23 1.23 0 01-.136-1.155l1.595-4.148h2.127L6.98 15.552a1.252 1.252 0 01-1.785.775 1.23 1.23 0 01-.447-.4zm1.626 1.523a2.305 2.305 0 001.063-.626v11.331H6.375V17.452zm4.25 14.424h-8.5v-2.656h8.5v2.656zm.531-3.719H8.5V21.25h4.25v10.625h-1.063v-3.188a.53.53 0 00-.53-.53zm2.656-1.062h.532v1.593a.529.529 0 00.531.532h1.063v2.656h-2.126v-4.781zm18.063 4.781h-8.5v-2.656h8.5v2.656z"/><path d="M20.719 6.375h-.577a3.195 3.195 0 00-2.61-2.611v-.576a.531.531 0 10-1.063 0v.576a3.195 3.195 0 00-2.611 2.611h-.577a.531.531 0 00-.531.531 2.127 2.127 0 002.125 2.125h4.25a2.127 2.127 0 002.125-2.125.531.531 0 00-.531-.531zM17 4.781a2.129 2.129 0 012.058 1.594h-4.116A2.129 2.129 0 0117 4.781zm2.125 3.188h-4.25a1.063 1.063 0 01-.92-.532h6.09a1.064 1.064 0 01-.92.532zm-6.08-2.746a.532.532 0 00.236-.442V3.188H12.22v1.29a2.339 2.339 0 01-.531.194V3.188h-1.063v1.484a2.337 2.337 0 01-.531-.194v-1.29H9.03V4.78a.531.531 0 00.237.442c.409.273.872.454 1.357.531V9.03h1.063V5.754a3.406 3.406 0 001.357-.53zm9.799-2.567a2.125 2.125 0 00-.532 4.183v2.192h1.063V6.84a2.125 2.125 0 00-.531-4.183zm0 3.188a1.063 1.063 0 110-2.125 1.063 1.063 0 010 2.125z"/></svg><svg viewBox="0 0 44 44" id="icon-sandwich" xmlns="http://www.w3.org/2000/svg"><g clip-path="url(#tclip0_0_263)"><path d="M41.8 6.6h-1.467V5.133a2.2 2.2 0 00-2.2-2.2h-1.747L35.326.811A1.457 1.457 0 0034.012 0H33c-.81 0-1.467.657-1.467 1.467v1.466h-8.066a2.2 2.2 0 00-2.2 2.2V6.6H19.8a2.2 2.2 0 00-2.2 2.2v1.467c0 .81.657 1.466 1.467 1.466h.077l.858 7.577-3.533-.83a11.096 11.096 0 00-.576-.813L14.646 12.3a.733.733 0 00-.713-.568H9.72C7.73 9.981 5.382 9.19 3.61 9.711L2.532 8.537a1.448 1.448 0 00-1.605-.366c-.56.216-.93.755-.928 1.355v32.289A2.188 2.188 0 002.185 44h35.948c.373 0 .686-.28.728-.65l3.593-31.617h.08c.81 0 1.466-.657 1.466-1.466V8.8a2.2 2.2 0 00-2.2-2.2zM33 1.467h1.013l.734 1.466H33V1.467zM22.733 5.133c0-.405.329-.733.734-.733h14.666c.405 0 .734.328.734.733V6.6H22.733V5.133zm-2.053 15.84l.046.009.593.14.397 4.162a6.758 6.758 0 00-3.94-1.242 6.28 6.28 0 00-.411-3.848l3.315.78zm1.433 6.487l.01.008c.265.245.517.505.755.778a8.685 8.685 0 011.876 3.388c.124.437.188.89.19 1.344l-6.849-7.47c1.523.17 2.942.86 4.018 1.952zm-7.728-9.32v-.002c1.583 1.819 2.32 4.003 1.97 5.472l-7.463-8.137c1.505-.336 3.795.721 5.493 2.667zm-1.038-4.94l.586 2.497a9.342 9.342 0 00-1.913-1.154 11.558 11.558 0 00-.928-1.343h2.255zm-3.687.546h.003c.061.07.11.146.17.22a3.99 3.99 0 00-2.012.338l-3.015-3.288c1.474.021 3.398 1.058 4.854 2.73zm21.077 28.356a.716.716 0 01-.656.431H2.185a.719.719 0 01-.718-.718L1.453 9.533l14.72 16.048v.004l8.644 9.424.01.011 4.741 5.172c.017.022.034.044.053.065l.984 1.072a.716.716 0 01.132.773zm-4.54-7.757a4.59 4.59 0 00.203-1.352c.385.325.744.68 1.074 1.061.41.468.773.975 1.086 1.513.428.72.73 1.507.895 2.329l-3.257-3.551zm11.281 8.188h-5.342c.275-.76.1-1.61-.45-2.2l-.74-.806a6.691 6.691 0 00-.571-3.594h7.854l-.75 6.6zm.917-8.066h-8.8a11.218 11.218 0 00-1.009-1.375 10.69 10.69 0 00-2.512-2.136 10.145 10.145 0 00-2.09-3.676c-.22-.25-.44-.482-.671-.706l-.58-6.11a.733.733 0 00-.56-.644l-.65-.154-.154-1.333h18.86l-1.834 16.134zm2-17.6H21.203l-.58-5.134H40.98l-.583 5.134zm2.138-6.6H19.067V8.8c0-.405.328-.733.733-.733h22c.405 0 .733.328.733.733v1.467z"/><path d="M31.1 32.267c.042 0 .083-.006.124-.008.011 0 .023.008.034.008a.704.704 0 00.109-.016 3.966 3.966 0 002.899-1.568 5.1 5.1 0 00.714-4.474c-.102-.38-.195-.753-.285-1.113-.572-2.293-1.119-4.456-3.435-4.553-.024 0-.046-.004-.07-.004-.023 0-.057-.006-.09-.006-2.591 0-4.7 2.632-4.7 5.867s2.109 5.867 4.7 5.867zm.568-10.157c.758.298 1.092 1.291 1.604 3.341.092.367.187.751.293 1.14a3.656 3.656 0 01-.464 3.2 2.592 2.592 0 01-.876.734 10.656 10.656 0 00-.733-3.68c-.073-.23-.147-.45-.211-.66-.427-1.389.073-3.188.387-4.075zm-1.576.11a8.049 8.049 0 00-.212 4.393c.068.22.143.448.22.685.367 1.12.807 2.472.627 3.468-1.607-.25-2.86-2.112-2.86-4.366 0-1.947.935-3.6 2.225-4.18zM3.881 38.563l-.518.518A.733.733 0 104.4 40.118l.518-.518a.733.733 0 00-1.037-1.037zm7.012-4.937a.734.734 0 00-1.038-1.037l-.518.518a.733.733 0 101.037 1.038l.519-.519zM4.4 31.748l-.519.519a.733.733 0 101.037 1.037l.519-.519A.733.733 0 004.4 31.748zm0-5.133l-.519.518a.733.733 0 101.037 1.037l.519-.518A.733.733 0 004.4 26.615zM11 38.563l-.518.518a.733.733 0 101.037 1.037l.518-.518A.733.733 0 0011 38.563zm5.348 0l-.518.519a.734.734 0 101.037 1.036l.518-.518a.733.733 0 00-1.037-1.037z"/></g><defs><clipPath id="tclip0_0_263"><path d="M0 0h44v44H0z"/></clipPath></defs></svg><svg viewBox="0 0 24 24" id="icon-search" xmlns="http://www.w3.org/2000/svg"><ellipse cx="11.767" cy="11.63" rx="8.989" ry="8.884"/><path d="M18.018 18.27l3.524 3.475"/></svg><svg viewBox="0 0 22 22" id="icon-time" xmlns="http://www.w3.org/2000/svg"><g opacity=".9"><path d="M11.575 2.54v-.959a.611.611 0 00-1.222 0v.965c-4.803.333-8.609 4.344-8.609 9.23 0 5.102 4.153 9.254 9.256 9.254 5.103 0 9.256-4.152 9.256-9.255 0-4.91-3.845-8.937-8.681-9.235zM11 19.808c-4.43 0-8.033-3.604-8.033-8.033 0-4.43 3.603-8.032 8.033-8.032s8.033 3.603 8.033 8.032S15.43 19.808 11 19.808z"/><path d="M7.863 17.322a6.39 6.39 0 01-3.234-5.547.305.305 0 10-.611 0 7.003 7.003 0 003.544 6.079.306.306 0 10.3-.532zm1.667.838a6.839 6.839 0 01-.353-.102.305.305 0 00-.186.582c.127.04.255.078.385.11a.305.305 0 00.153-.59zm9.355-12.432a.611.611 0 00.863-.865L18.162 3.28a.61.61 0 10-.863.865l1.586 1.583zm-7.31 5.933V6.776a.611.611 0 00-1.223 0v5.15c0 .168.088.328.21.443l1.789 1.672a.61.61 0 00.657.117.61.61 0 00.164-1.006l-1.597-1.49z"/></g></svg><svg viewBox="0 0 34 34" id="icon-timer" xmlns="http://www.w3.org/2000/svg"><g clip-path="url(#wclip0_0_379)"><path d="M31.754 12.881l.996-.996c.288-.288.447-.67.447-1.078 0-.407-.159-.79-.447-1.077l-1.14-1.141a1.514 1.514 0 00-1.078-.447c-.407 0-.79.159-1.078.447l-.996.996a12.7 12.7 0 00-4.412-1.933V6.179h.606a1.49 1.49 0 001.488-1.488v-2.07a1.49 1.49 0 00-1.488-1.488H17.8a1.49 1.49 0 00-1.488 1.488v2.07c0 .82.668 1.488 1.488 1.488h.606v1.477a12.703 12.703 0 00-4.392 1.929l-.996-.996a1.514 1.514 0 00-1.078-.447c-.407 0-.79.159-1.078.447l-1.14 1.14a1.526 1.526 0 000 2.156l.176.177H5.19a.664.664 0 000 1.328h5.193a12.713 12.713 0 00-1.215 2.552H.664a.664.664 0 000 1.328H8.79a12.747 12.747 0 00-.314 2.553H4.25a.664.664 0 000 1.328h4.265c.072.879.233 1.733.474 2.552H3.32a.664.664 0 000 1.329h6.142c1.932 4.598 6.482 7.835 11.774 7.835C28.274 32.867 34 27.142 34 20.104c0-2.678-.83-5.167-2.246-7.222zm-1.36-3.353a.192.192 0 01.138-.058c.037 0 .091.01.139.058l1.14 1.14a.193.193 0 01.058.14.19.19 0 01-.058.138l-.873.873c-.435-.509-.91-.983-1.418-1.418l.873-.873zM17.64 4.69V2.62a.16.16 0 01.16-.16h6.852a.16.16 0 01.16.16v2.07a.16.16 0 01-.16.16H17.8a.16.16 0 01-.16-.16zm2.095 1.488h2.983v1.247a12.835 12.835 0 00-2.983.002V6.179zm-9.075 4.49l1.141-1.141a.192.192 0 01.139-.058c.037 0 .091.01.139.058l.873.873c-.51.435-.983.91-1.418 1.418l-.874-.873a.196.196 0 010-.277zm10.576 20.87C14.93 31.54 9.8 26.41 9.8 20.103S14.93 8.667 21.236 8.667s11.436 5.13 11.436 11.436-5.13 11.436-11.436 11.436z"/><path d="M25.619 14.781l-3.14 3.14a2.498 2.498 0 00-1.243-.331 2.517 2.517 0 00-2.514 2.513 2.517 2.517 0 002.514 2.514 2.516 2.516 0 002.514-2.514c0-.452-.121-.877-.331-1.244l3.139-3.139a.664.664 0 00-.94-.939zm-4.383 6.508a1.187 1.187 0 01-1.186-1.186 1.187 1.187 0 012.371 0c0 .654-.531 1.186-1.185 1.186zm0-9.795a.669.669 0 00.47-.195.67.67 0 00.194-.47.669.669 0 00-.664-.664.669.669 0 00-.664.664.668.668 0 00.664.665zm0 17.219a.669.669 0 00-.47.194.668.668 0 00.47 1.134.666.666 0 00.664-.664.669.669 0 00-.194-.47.669.669 0 00-.47-.194zm-6.558-15.831a.67.67 0 00-.47.194.67.67 0 00-.194.47.67.67 0 00.195.47.669.669 0 00.939 0 .67.67 0 00.194-.47.67.67 0 00-.194-.47.669.669 0 00-.47-.194zm13.116 13.115a.67.67 0 00-.47.194.668.668 0 000 .94.67.67 0 00.47.194.669.669 0 00.47-.195.67.67 0 00.194-.47.669.669 0 00-.664-.663zm-13.116 0a.67.67 0 00-.47.194.669.669 0 00-.194.47.67.67 0 00.195.47.67.67 0 00.47.194.669.669 0 00.469-.195.67.67 0 00.194-.47.67.67 0 00-.194-.469.67.67 0 00-.47-.194zm-2.715-6.557a.668.668 0 00-.665.663.667.667 0 00.665.664.666.666 0 00.664-.664.669.669 0 00-.195-.47.669.669 0 00-.47-.194zm19.017.194a.667.667 0 00-1.133.47.667.667 0 00.663.663.669.669 0 00.664-.664.67.67 0 00-.195-.47zM.664 23.704a.669.669 0 00-.47.194.67.67 0 00-.194.47.67.67 0 00.195.47.67.67 0 00.47.194.669.669 0 00.468-.195.67.67 0 00.195-.47.67.67 0 00-.195-.47.668.668 0 00-.469-.193z"/><path d="M30.314 18.087a.664.664 0 00.447-.826 9.964 9.964 0 00-6.704-6.689.664.664 0 10-.376 1.274 8.576 8.576 0 015.807 5.794.664.664 0 00.826.447z"/></g><defs><clipPath id="wclip0_0_379"><path d="M0 0h34v34H0z"/></clipPath></defs></svg><svg viewBox="0 0 21 17" id="icon-twitter" xmlns="http://www.w3.org/2000/svg"><path d="M20.526 1.98a8.436 8.436 0 01-2.422.652 4.196 4.196 0 001.85-2.319 8.304 8.304 0 01-2.67 1.017A4.196 4.196 0 0014.212 0a4.205 4.205 0 00-4.206 4.208c0 .326.04.652.104.965A11.954 11.954 0 011.436.77a4.177 4.177 0 00-.573 2.124 4.21 4.21 0 001.875 3.505 4.243 4.243 0 01-1.902-.535v.051a4.207 4.207 0 003.372 4.13 4.456 4.456 0 01-1.107.143 5.61 5.61 0 01-.795-.064 4.214 4.214 0 003.933 2.918 8.43 8.43 0 01-5.223 1.798c-.352 0-.678-.012-1.016-.051a11.911 11.911 0 006.46 1.887c7.737 0 11.97-6.41 11.97-11.972 0-.182 0-.365-.013-.547a9.06 9.06 0 002.11-2.176z"/></svg><svg viewBox="0 0 197 31" id="logo" xmlns="http://www.w3.org/2000/svg"><path d="M9.593 24.33c-1.958 0-3.641-.297-5.049-.891-1.408-.594-2.475-1.375-3.201-2.343S.232 19.083.188 17.961c0-.198.066-.363.198-.495a.672.672 0 01.495-.198h2.937c.264 0 .462.055.594.165.154.088.297.242.429.462.22.748.726 1.375 1.518 1.881s1.87.759 3.234.759c1.562 0 2.739-.253 3.531-.759.792-.528 1.188-1.254 1.188-2.178 0-.616-.209-1.122-.627-1.518-.396-.396-1.001-.737-1.815-1.023-.792-.286-1.98-.638-3.564-1.056-2.596-.616-4.499-1.43-5.709-2.442C1.409 10.525.815 9.062.815 7.17c0-1.276.341-2.409 1.023-3.399.704-.99 1.705-1.771 3.003-2.343C6.161.856 7.69.57 9.428.57c1.804 0 3.366.319 4.686.957 1.32.638 2.321 1.441 3.003 2.409.704.946 1.078 1.892 1.122 2.838a.672.672 0 01-.198.495.672.672 0 01-.495.198h-3.069c-.462 0-.781-.209-.957-.627-.132-.704-.572-1.287-1.32-1.749-.748-.484-1.672-.726-2.772-.726-1.232 0-2.2.231-2.904.693-.704.462-1.056 1.133-1.056 2.013 0 .616.176 1.122.528 1.518.352.396.902.748 1.65 1.056.77.308 1.87.649 3.3 1.023 1.936.44 3.476.935 4.62 1.485 1.166.55 2.024 1.243 2.574 2.079.55.836.825 1.903.825 3.201 0 1.408-.396 2.64-1.188 3.696-.77 1.034-1.87 1.826-3.3 2.376-1.408.55-3.036.825-4.884.825zM24.43 4.002a.764.764 0 01-.561-.231.764.764 0 01-.231-.561V.834c0-.22.077-.407.23-.561a.764.764 0 01.562-.231h3.003a.76.76 0 01.56.231.719.719 0 01.265.561V3.21c0 .22-.077.407-.231.561a.804.804 0 01-.594.231H24.43zM24.562 24a.764.764 0 01-.561-.231.764.764 0 01-.231-.561V7.632c0-.22.077-.407.23-.561a.764.764 0 01.562-.231H27.3c.242 0 .429.077.56.231.155.132.232.319.232.561v15.576c0 .22-.077.407-.231.561-.132.154-.32.231-.561.231h-2.74zm10.12 0a.764.764 0 01-.561-.231.764.764 0 01-.231-.561V7.632c0-.22.077-.407.231-.561a.764.764 0 01.561-.231h2.574c.22 0 .407.077.561.231a.764.764 0 01.231.561v1.122c1.144-1.496 2.739-2.244 4.785-2.244 2.442 0 4.147.979 5.115 2.937.528-.88 1.276-1.584 2.244-2.112a6.24 6.24 0 013.135-.825c1.804 0 3.278.616 4.422 1.848 1.144 1.232 1.716 3.025 1.716 5.379v9.471c0 .22-.077.407-.231.561-.132.154-.319.231-.561.231h-2.706a.764.764 0 01-.561-.231.764.764 0 01-.231-.561v-9.207c0-1.386-.297-2.387-.891-3.003-.572-.638-1.342-.957-2.31-.957-.858 0-1.595.319-2.211.957-.594.638-.891 1.639-.891 3.003v9.207c0 .22-.077.407-.231.561a.764.764 0 01-.561.231h-2.706a.764.764 0 01-.561-.231.764.764 0 01-.231-.561v-9.207c0-1.386-.308-2.387-.924-3.003-.594-.638-1.353-.957-2.277-.957-.88 0-1.628.319-2.244.957-.594.638-.891 1.639-.891 3.003v9.207c0 .22-.077.407-.231.561a.764.764 0 01-.561.231h-2.772zm31.23 6.27a.764.764 0 01-.562-.231c-.154-.132-.23-.319-.23-.561V7.632c0-.242.076-.429.23-.561a.764.764 0 01.561-.231h2.607c.242 0 .43.077.561.231.154.132.231.319.231.561v1.32c1.232-1.628 2.992-2.442 5.28-2.442 2.222 0 3.927.704 5.115 2.112 1.188 1.386 1.826 3.267 1.914 5.643.022.264.033.649.033 1.155 0 .528-.01.924-.033 1.188-.088 2.31-.726 4.18-1.914 5.61-1.188 1.408-2.893 2.112-5.115 2.112-2.222 0-3.916-.781-5.082-2.343v7.491c0 .242-.077.429-.23.561-.133.154-.32.231-.562.231h-2.805zm7.457-9.471c2.376 0 3.641-1.463 3.795-4.389.022-.22.033-.55.033-.99 0-.44-.01-.77-.033-.99-.154-2.926-1.419-4.389-3.795-4.389-1.276 0-2.222.407-2.838 1.221-.616.814-.957 1.815-1.023 3.003l-.033 1.254.033 1.287c.044 1.1.385 2.046 1.023 2.838.66.77 1.606 1.155 2.838 1.155zM87.601 24a.764.764 0 01-.561-.231.764.764 0 01-.231-.561V1.362c0-.242.077-.429.23-.561a.764.764 0 01.562-.231h2.739c.242 0 .429.077.56.231.155.132.232.319.232.561v21.846c0 .22-.077.407-.231.561-.132.154-.32.231-.561.231H87.6zm16.719.33c-2.442 0-4.389-.704-5.84-2.112-1.43-1.43-2.19-3.432-2.278-6.006l-.033-.825.033-.825c.11-2.508.88-4.477 2.31-5.907 1.452-1.43 3.388-2.145 5.808-2.145 2.596 0 4.598.792 6.006 2.376 1.43 1.584 2.145 3.696 2.145 6.336v.693c0 .22-.077.407-.231.561a.804.804 0 01-.594.231H100.69v.264c.044 1.21.374 2.233.99 3.069.638.814 1.507 1.221 2.607 1.221 1.298 0 2.343-.506 3.135-1.518.198-.242.352-.396.462-.462.132-.066.319-.099.561-.099h2.838c.198 0 .363.066.495.198.154.11.231.253.231.429 0 .528-.319 1.155-.957 1.881-.616.704-1.507 1.32-2.673 1.848-1.166.528-2.519.792-4.059.792zm3.663-10.395v-.099c0-1.298-.33-2.343-.99-3.135-.638-.792-1.529-1.188-2.673-1.188-1.144 0-2.035.396-2.673 1.188-.638.792-.957 1.837-.957 3.135v.099h7.293zM118.581 24a.764.764 0 01-.561-.231.764.764 0 01-.231-.561V1.725a.88.88 0 01.198-.594.804.804 0 01.594-.231h14.322c.242 0 .44.077.594.231a.804.804 0 01.231.594v2.31c0 .242-.077.44-.231.594a.88.88 0 01-.594.198H122.31v6.27h9.933c.242 0 .44.077.594.231a.804.804 0 01.231.594v2.31c0 .242-.077.44-.231.594a.88.88 0 01-.594.198h-9.933v8.184c0 .242-.077.44-.231.594a.88.88 0 01-.594.198h-2.904zm27.318.33c-2.574 0-4.565-.66-5.973-1.98-1.408-1.342-2.167-3.168-2.277-5.478l-.033-1.452.033-1.452c.11-2.288.88-4.103 2.31-5.445 1.43-1.342 3.41-2.013 5.94-2.013 2.53 0 4.51.671 5.94 2.013 1.43 1.342 2.2 3.157 2.31 5.445.022.264.033.748.033 1.452s-.011 1.188-.033 1.452c-.11 2.31-.869 4.136-2.277 5.478-1.408 1.32-3.399 1.98-5.973 1.98zm0-3.267c1.166 0 2.068-.363 2.706-1.089.638-.748.99-1.837 1.056-3.267.022-.22.033-.649.033-1.287 0-.638-.011-1.067-.033-1.287-.066-1.43-.418-2.508-1.056-3.234-.638-.748-1.54-1.122-2.706-1.122s-2.068.374-2.706 1.122c-.638.726-.99 1.804-1.056 3.234l-.033 1.287.033 1.287c.066 1.43.418 2.519 1.056 3.267.638.726 1.54 1.089 2.706 1.089zm20.949 3.267c-2.574 0-4.565-.66-5.973-1.98-1.408-1.342-2.167-3.168-2.277-5.478l-.033-1.452.033-1.452c.11-2.288.88-4.103 2.31-5.445 1.43-1.342 3.41-2.013 5.94-2.013 2.53 0 4.51.671 5.94 2.013 1.43 1.342 2.2 3.157 2.31 5.445.022.264.033.748.033 1.452s-.011 1.188-.033 1.452c-.11 2.31-.869 4.136-2.277 5.478-1.408 1.32-3.399 1.98-5.973 1.98zm0-3.267c1.166 0 2.068-.363 2.706-1.089.638-.748.99-1.837 1.056-3.267.022-.22.033-.649.033-1.287 0-.638-.011-1.067-.033-1.287-.066-1.43-.418-2.508-1.056-3.234-.638-.748-1.54-1.122-2.706-1.122s-2.068.374-2.706 1.122c-.638.726-.99 1.804-1.056 3.234l-.033 1.287.033 1.287c.066 1.43.418 2.519 1.056 3.267.638.726 1.54 1.089 2.706 1.089zm19.727 3.267c-2.222 0-3.927-.715-5.115-2.145-1.188-1.43-1.826-3.333-1.914-5.709l-.033-1.089.033-1.056c.066-2.31.693-4.191 1.881-5.643 1.21-1.452 2.926-2.178 5.148-2.178 2.134 0 3.828.726 5.082 2.178V1.362c0-.242.077-.429.231-.561a.764.764 0 01.561-.231h2.805c.242 0 .429.077.561.231.154.132.231.319.231.561v21.846c0 .22-.077.407-.231.561-.132.154-.319.231-.561.231h-2.607a.764.764 0 01-.561-.231.764.764 0 01-.231-.561v-1.221c-1.254 1.562-3.014 2.343-5.28 2.343zm1.221-3.531c1.276 0 2.222-.407 2.838-1.221.616-.814.957-1.815 1.023-3.003.022-.264.033-.693.033-1.287 0-.572-.011-.99-.033-1.254-.044-1.1-.396-2.035-1.056-2.805-.638-.792-1.573-1.188-2.805-1.188-2.376 0-3.641 1.463-3.795 4.389l-.033.99.033.99c.154 2.926 1.419 4.389 3.795 4.389z"/></svg></svg>